<svg xmlns="http://www.w3.org/2000/svg" viewBox="0 0 800 760" fill="none">
  <defs>
    <linearGradient id="bg06" x1="0" y1="0" x2="800" y2="760" gradientUnits="userSpaceOnUse">
      <stop offset="0" stop-color="#111111"/>
      <stop offset="1" stop-color="#050505"/>
    </linearGradient>
    <radialGradient id="glow06" cx="50%" cy="45%" r="60%">
      <stop offset="0" stop-color="#00AEEF" stop-opacity="0.35"/>
      <stop offset="1" stop-color="#00AEEF" stop-opacity="0"/>
    </radialGradient>
  </defs>
  <rect width="800" height="760" fill="url(#bg06)"/>
  <circle cx="400" cy="380.0" r="304.0" fill="url(#glow06)"/>
  <path d="M 419.1 421.0 Q 358.3 484.9 308.7 510.4 Q 269.4 451.7 203.9 362.8 Q 306.3 335.4 369.1 313.7 Q 412.1 301.0 438.7 324.8 Q 504.4 344.0 591.9 396.8 Q 511.0 463.7 470.2 530.5 Z" stroke="#00AEEF" stroke-width="1.4" stroke-opacity="0.75"/>
  <path d="M 383.2 575.8 Q 337.3 503.2 255.2 447.8 Q 311.5 381.1 362.7 354.0 Q 370.8 298.6 409.5 268.9 Q 480.3 286.1 589.2 291.4 Q 537.6 388.7 496.5 447.4 Q 459.8 450.4 396.3 423.7 Z" stroke="#D9D9D9" stroke-width="0.8" stroke-opacity="0.3"/>
</svg>
